<svg width="20" height="20" viewBox="0 0 20 20" fill="none" xmlns="http://www.w3.org/2000/svg">
<path d="M19.8382 6.44518C19.8382 6.44418 19.8372 6.44418 19.8382 6.44518L19.8351 6.44118L19.8342 6.44018V6.43918C19.7722 6.34796 19.6922 6.27037 19.5992 6.21118L10.4352 0.131181C10.3011 0.0455176 10.1453 0 9.98615 0C9.82703 0 9.67124 0.0455176 9.53715 0.131181L0.371151 6.21418C0.255413 6.2861 0.16036 6.38687 0.0953182 6.50661C0.0302769 6.62635 -0.00251815 6.76094 0.000150819 6.89718V13.0572C-0.00236441 13.2163 0.043301 13.3725 0.131151 13.5052V13.5062L0.133151 13.5082L0.143151 13.5232V13.5252H0.144151L0.145151 13.5262L0.146151 13.5272C0.209151 13.6152 0.286151 13.6872 0.372151 13.7422L9.53715 19.8242C9.66888 19.915 9.82516 19.9635 9.98515 19.9632C10.1459 19.9641 10.3029 19.9155 10.4352 19.8242L19.6002 13.7422C19.7156 13.6695 19.8104 13.5683 19.8754 13.4483C19.9404 13.3283 19.9734 13.1936 19.9712 13.0572V6.89718C19.9736 6.73652 19.9273 6.57889 19.8382 6.44518V6.44518ZM10.7812 2.27318L17.7341 6.88618L14.5512 8.99818L10.7802 6.46218V2.27318H10.7812ZM9.18915 2.27318V6.46218L5.41815 8.99818L2.23715 6.88718L9.18915 2.27318V2.27318ZM1.59415 8.37118L3.98915 9.96118L1.59415 11.5722V8.37118V8.37118ZM9.18915 17.6822L2.22915 13.0652L5.42415 10.9152L9.18915 13.4132V17.6822ZM9.98415 12.0292L6.85615 9.95118L9.98415 7.84618L13.1152 9.95118L9.98415 12.0292ZM10.7812 17.6822V13.4122L14.5472 10.9142L17.7402 13.0642L10.7812 17.6822V17.6822ZM18.3782 11.5722L15.9822 9.96118L18.3782 8.37118V11.5722Z" fill="black"/>
</svg>
